# Blender 5.2.1 LTS
# www.blender.org
mtllib nail_energy_smooth.mtl
o nail_energy_smooth
v -11.000000 2.350000 -0.604674
v -11.000000 6.350000 -0.300240
v -10.572431 2.350000 -0.427569
v -10.787699 6.350000 -0.212302
v -10.395327 2.350000 0.000000
v -10.699760 6.350000 0.000000
v -10.572431 2.350000 0.427569
v -10.787699 6.350000 0.212302
v -11.000000 2.350000 0.604674
v -11.000000 6.350000 0.300240
v -11.427569 2.350000 0.427569
v -11.212301 6.350000 0.212302
v -11.604673 2.350000 -0.000000
v -11.300240 6.350000 0.000000
v -11.427569 2.350000 -0.427569
v -11.212301 6.349999 -0.212302
v -11.000000 0.175000 -1.120726
v -11.000000 0.525000 -1.049596
v -10.207527 0.175000 -0.792473
v -10.257824 0.525000 -0.742177
v -9.879274 0.175000 0.000000
v -9.950404 0.525000 0.000000
v -10.207527 0.175000 0.792473
v -10.257824 0.525000 0.742177
v -11.000000 0.175000 1.120726
v -11.000000 0.525000 1.049596
v -11.792473 0.175000 0.792473
v -11.742176 0.525000 0.742177
v -12.120726 0.175000 0.000000
v -12.049596 0.525000 -0.000000
v -11.792473 0.175000 -0.792473
v -11.742176 0.525000 -0.742176
v -10.912154 2.058269 -0.574912
v -10.785833 1.911728 -0.517044
v -10.655592 2.058269 -0.468640
v -10.844890 6.641731 -0.207839
v -10.909223 6.788271 -0.219156
v -10.962715 6.641731 -0.256644
v -11.000000 3.163400 -0.597740
v -11.000000 4.350000 -0.521854
v -11.000000 5.536600 -0.401537
v -10.716070 5.536600 -0.283930
v -10.630993 4.350000 -0.369007
v -10.577334 3.163400 -0.422666
v -10.531360 2.058269 -0.344408
v -10.482956 1.911728 -0.214167
v -10.425088 2.058269 -0.087846
v -10.743356 6.641731 -0.037284
v -10.780844 6.788271 -0.090778
v -10.792161 6.641731 -0.155111
v -10.598463 5.536600 0.000000
v -10.478146 4.350000 -0.000000
v -10.402260 3.163400 0.000000
v -10.425088 2.058269 0.087845
v -10.482956 1.911728 0.214167
v -10.531360 2.058269 0.344408
v -10.792161 6.641731 0.155111
v -10.780844 6.788271 0.090778
v -10.743356 6.641731 0.037284
v -10.716070 5.536600 0.283930
v -10.630993 4.350000 0.369007
v -10.577334 3.163400 0.422666
v -10.655592 2.058269 0.468640
v -10.785833 1.911728 0.517044
v -10.912154 2.058269 0.574912
v -10.962715 6.641731 0.256644
v -10.909223 6.788271 0.219156
v -10.844890 6.641731 0.207839
v -11.000000 5.536600 0.401537
v -11.000000 4.350000 0.521854
v -11.000000 3.163400 0.597740
v -11.087846 2.058269 0.574912
v -11.214167 1.911728 0.517044
v -11.344408 2.058269 0.468640
v -11.155110 6.641731 0.207839
v -11.090777 6.788271 0.219156
v -11.037285 6.641731 0.256644
v -11.283930 5.536600 0.283930
v -11.369007 4.350000 0.369007
v -11.422666 3.163400 0.422666
v -11.468640 2.058269 0.344408
v -11.517044 1.911728 0.214167
v -11.574912 2.058269 0.087845
v -11.256644 6.641731 0.037284
v -11.219156 6.788271 0.090778
v -11.207839 6.641731 0.155111
v -11.401537 5.536600 -0.000000
v -11.521854 4.350000 0.000000
v -11.597740 3.163400 -0.000000
v -11.574912 2.058269 -0.087845
v -11.517044 1.911728 -0.214167
v -11.468640 2.058269 -0.344408
v -11.207839 6.641731 -0.155111
v -11.219156 6.788271 -0.090778
v -11.256644 6.641731 -0.037284
v -11.283930 5.536600 -0.283930
v -11.369007 4.350000 -0.369007
v -11.422666 3.163400 -0.422666
v -11.344408 2.058269 -0.468640
v -11.214167 1.911728 -0.517044
v -11.087846 2.058269 -0.574912
v -11.037285 6.641731 -0.256644
v -11.090777 6.788271 -0.219156
v -11.155110 6.641731 -0.207839
v -10.844039 0.149474 -1.034372
v -10.619900 0.136651 -0.917642
v -10.378869 0.149473 -0.841693
v -10.423098 0.550526 -0.780758
v -10.648729 0.563349 -0.848042
v -10.855852 0.550526 -0.960011
v -11.000000 0.246172 -1.221241
v -11.000000 0.350000 -1.251602
v -11.000000 0.453827 -1.175399
v -10.168867 0.453827 -0.831133
v -10.114984 0.350000 -0.885016
v -10.136453 0.246172 -0.863548
v -10.158307 0.149473 -0.621131
v -10.082357 0.136651 -0.380100
v -9.965628 0.149473 -0.155961
v -10.039989 0.550526 -0.144148
v -10.151958 0.563349 -0.351271
v -10.219242 0.550526 -0.576902
v -9.824601 0.453827 0.000000
v -9.748398 0.350000 0.000000
v -9.778759 0.246172 0.000000
v -9.965628 0.149473 0.155961
v -10.082357 0.136651 0.380100
v -10.158307 0.149473 0.621131
v -10.219242 0.550526 0.576902
v -10.151958 0.563349 0.351271
v -10.039989 0.550526 0.144148
v -10.168867 0.453827 0.831133
v -10.114984 0.350000 0.885017
v -10.136453 0.246172 0.863548
v -10.378869 0.149473 0.841693
v -10.619900 0.136651 0.917642
v -10.844039 0.149473 1.034372
v -10.855852 0.550526 0.960011
v -10.648729 0.563349 0.848042
v -10.423098 0.550526 0.780758
v -11.000000 0.453827 1.175399
v -11.000000 0.350000 1.251602
v -11.000000 0.246172 1.221241
v -11.155961 0.149473 1.034372
v -11.380100 0.136651 0.917642
v -11.621131 0.149473 0.841693
v -11.576902 0.550526 0.780758
v -11.351271 0.563349 0.848042
v -11.144148 0.550526 0.960011
v -11.831133 0.453827 0.831133
v -11.885016 0.350000 0.885016
v -11.863547 0.246172 0.863548
v -11.841693 0.149474 0.621131
v -11.917643 0.136651 0.380100
v -12.034372 0.149473 0.155961
v -11.960011 0.550526 0.144148
v -11.848042 0.563349 0.351271
v -11.780758 0.550526 0.576902
v -12.175399 0.453827 -0.000000
v -12.251602 0.350000 -0.000000
v -12.221241 0.246172 -0.000000
v -12.034372 0.149474 -0.155961
v -11.917643 0.136651 -0.380100
v -11.841693 0.149473 -0.621131
v -11.780758 0.550526 -0.576902
v -11.848042 0.563349 -0.351271
v -11.960011 0.550526 -0.144148
v -11.831133 0.453827 -0.831133
v -11.885016 0.350000 -0.885017
v -11.863547 0.246172 -0.863548
v -11.621131 0.149474 -0.841693
v -11.380100 0.136651 -0.917642
v -11.155961 0.149473 -1.034372
v -11.144148 0.550526 -0.960011
v -11.351271 0.563349 -0.848042
v -11.576902 0.550526 -0.780758
v -10.887661 3.085372 -0.583455
v -10.900660 4.350000 -0.508380
v -10.928940 5.614628 -0.383263
v -10.774196 3.017438 -0.545139
v -10.803226 4.350000 -0.475055
v -10.854846 5.682562 -0.350432
v -10.666870 3.085372 -0.492000
v -10.710765 4.350000 -0.429723
v -10.779240 5.614628 -0.321255
v -10.507999 3.085372 -0.333130
v -10.570277 4.350000 -0.289235
v -10.678745 5.614628 -0.220760
v -10.454861 3.017438 -0.225804
v -10.524944 4.350000 -0.196774
v -10.649568 5.682562 -0.145154
v -10.416545 3.085372 -0.112339
v -10.491620 4.350000 -0.099340
v -10.616737 5.614628 -0.071061
v -10.416545 3.085372 0.112339
v -10.491620 4.350000 0.099340
v -10.616737 5.614628 0.071061
v -10.454861 3.017438 0.225804
v -10.524944 4.350000 0.196774
v -10.649568 5.682562 0.145154
v -10.507999 3.085372 0.333130
v -10.570277 4.350000 0.289235
v -10.678745 5.614628 0.220760
v -10.666870 3.085372 0.492000
v -10.710765 4.350000 0.429723
v -10.779240 5.614628 0.321255
v -10.774196 3.017438 0.545139
v -10.803226 4.350000 0.475055
v -10.854846 5.682561 0.350432
v -10.887661 3.085372 0.583455
v -10.900660 4.350000 0.508380
v -10.928940 5.614628 0.383263
v -11.112339 3.085372 0.583455
v -11.099340 4.350000 0.508380
v -11.071060 5.614628 0.383263
v -11.225804 3.017438 0.545139
v -11.196774 4.350000 0.475055
v -11.145154 5.682561 0.350432
v -11.333130 3.085372 0.492000
v -11.289235 4.350000 0.429723
v -11.220760 5.614628 0.321255
v -11.492001 3.085372 0.333130
v -11.429723 4.350000 0.289235
v -11.321255 5.614628 0.220760
v -11.545139 3.017438 0.225804
v -11.475056 4.350000 0.196774
v -11.350432 5.682561 0.145154
v -11.583455 3.085372 0.112339
v -11.508380 4.350000 0.099340
v -11.383263 5.614628 0.071061
v -11.000000 7.905557 -0.000000
v -10.882137 7.272711 -0.117863
v -10.951870 7.504321 -0.116197
v -11.000000 7.272711 -0.166683
v -11.048130 7.504321 -0.116197
v -11.117863 7.272711 -0.117863
v -11.116197 7.504321 -0.048130
v -11.166683 7.272711 0.000000
v -11.116197 7.504321 0.048130
v -11.117863 7.272711 0.117863
v -11.048130 7.504321 0.116197
v -11.000000 7.272711 0.166683
v -10.951870 7.504321 0.116197
v -10.882137 7.272711 0.117863
v -10.883803 7.504321 0.048130
v -10.833317 7.272711 -0.000000
v -10.883803 7.504321 -0.048130
v -11.583455 3.085372 -0.112339
v -11.508380 4.350000 -0.099340
v -11.383263 5.614628 -0.071061
v -11.545139 3.017438 -0.225804
v -11.475056 4.350000 -0.196774
v -11.350432 5.682562 -0.145154
v -11.492001 3.085372 -0.333130
v -11.429723 4.350000 -0.289235
v -11.321255 5.614628 -0.220760
v -11.333130 3.085372 -0.492001
v -11.289235 4.350000 -0.429723
v -11.220760 5.614628 -0.321255
v -11.225804 3.017438 -0.545139
v -11.196774 4.350000 -0.475055
v -11.145154 5.682562 -0.350432
v -11.112339 3.085372 -0.583455
v -11.099340 4.350000 -0.508380
v -11.071060 5.614628 -0.383263
v -11.000000 0.794443 -0.000000
v -11.000000 1.427289 -0.475500
v -10.852210 1.195678 -0.356796
v -10.663771 1.427289 -0.336229
v -10.643204 1.195678 -0.147790
v -10.524501 1.427289 -0.000000
v -10.643204 1.195678 0.147790
v -10.663771 1.427289 0.336229
v -10.852210 1.195678 0.356796
v -11.000000 1.427289 0.475500
v -11.147790 1.195678 0.356796
v -11.336229 1.427289 0.336229
v -11.356796 1.195678 0.147790
v -11.475499 1.427289 0.000000
v -11.356796 1.195678 -0.147790
v -11.336229 1.427289 -0.336229
v -11.147790 1.195678 -0.356796
v -10.775248 0.239345 -1.182662
v -10.761745 0.350000 -1.219286
v -10.784892 0.460654 -1.135888
v -10.545731 0.233401 -1.096704
v -10.528061 0.349999 -1.139361
v -10.564574 0.466599 -1.051212
v -10.322656 0.239345 -0.995192
v -10.306307 0.350000 -1.030637
v -10.348910 0.460655 -0.955298
v -10.004807 0.239345 -0.677345
v -9.969363 0.350000 -0.693694
v -10.044702 0.460655 -0.651090
v -9.903296 0.233401 -0.454270
v -9.860640 0.349999 -0.471939
v -9.948789 0.466599 -0.435426
v -9.817338 0.239345 -0.224752
v -9.780714 0.350000 -0.238255
v -9.864112 0.460655 -0.215108
v -9.817338 0.239345 0.224752
v -9.780714 0.350000 0.238255
v -9.864112 0.460655 0.215108
v -9.903296 0.233401 0.454270
v -9.860640 0.349999 0.471939
v -9.948789 0.466599 0.435426
v -10.004807 0.239345 0.677345
v -9.969363 0.350000 0.693694
v -10.044702 0.460655 0.651090
v -10.322656 0.239345 0.995192
v -10.306307 0.350000 1.030637
v -10.348910 0.460655 0.955298
v -10.545731 0.233401 1.096704
v -10.528061 0.349999 1.139361
v -10.564574 0.466599 1.051212
v -10.775248 0.239345 1.182662
v -10.761745 0.350000 1.219286
v -10.784892 0.460654 1.135888
v -11.224752 0.239345 1.182662
v -11.238255 0.350000 1.219286
v -11.215108 0.460655 1.135888
v -11.454269 0.233400 1.096704
v -11.471939 0.349999 1.139361
v -11.435426 0.466599 1.051212
v -11.677344 0.239345 0.995192
v -11.693693 0.350000 1.030637
v -11.651090 0.460655 0.955298
v -11.995193 0.239345 0.677345
v -12.030637 0.350000 0.693694
v -11.955298 0.460655 0.651090
v -12.096704 0.233401 0.454270
v -12.139360 0.349999 0.471939
v -12.051211 0.466599 0.435426
v -12.182662 0.239345 0.224752
v -12.219286 0.350000 0.238255
v -12.135888 0.460655 0.215108
v -11.000000 0.661110 -0.000000
v -10.480968 0.605736 -0.519031
v -10.776698 0.626002 -0.539099
v -11.000000 0.605736 -0.734021
v -11.223302 0.626002 -0.539099
v -11.519032 0.605736 -0.519031
v -11.539100 0.626002 -0.223302
v -11.734021 0.605736 -0.000000
v -11.539100 0.626002 0.223302
v -11.519032 0.605736 0.519031
v -11.223302 0.626002 0.539099
v -11.000000 0.605736 0.734021
v -10.776698 0.626002 0.539099
v -10.480968 0.605736 0.519031
v -10.460900 0.626002 0.223302
v -10.265979 0.605736 -0.000000
v -10.460900 0.626002 -0.223302
v -12.182662 0.239345 -0.224752
v -12.219286 0.350000 -0.238255
v -12.135888 0.460655 -0.215108
v -12.096704 0.233400 -0.454270
v -12.139360 0.349999 -0.471939
v -12.051211 0.466599 -0.435426
v -11.995193 0.239345 -0.677345
v -12.030637 0.350000 -0.693694
v -11.955298 0.460655 -0.651090
v -11.677344 0.239345 -0.995192
v -11.693693 0.350000 -1.030637
v -11.651090 0.460655 -0.955298
v -11.454269 0.233400 -1.096704
v -11.471939 0.349999 -1.139361
v -11.435426 0.466599 -1.051212
v -11.224752 0.239345 -1.182662
v -11.238255 0.350000 -1.219286
v -11.215108 0.460655 -1.135888
v -11.000000 0.038888 -0.000000
v -11.000000 0.094263 -0.806174
v -10.753413 0.073997 -0.595314
v -10.429949 0.094263 -0.570051
v -10.404686 0.073997 -0.246587
v -10.193826 0.094263 0.000000
v -10.404686 0.073997 0.246587
v -10.429949 0.094263 0.570051
v -10.753413 0.073997 0.595314
v -11.000000 0.094263 0.806174
v -11.246587 0.073997 0.595314
v -11.570051 0.094263 0.570051
v -11.595314 0.073997 0.246587
v -11.806174 0.094263 0.000000
v -11.595314 0.073997 -0.246587
v -11.570051 0.094263 -0.570051
v -11.246587 0.073997 -0.595314
vn -0.0000 -0.0166 -0.9999
vn -0.0000 0.1261 -0.9920
vn 0.7070 -0.0166 -0.7070
vn 0.7015 0.1261 -0.7015
vn 0.9999 -0.0166 -0.0000
vn 0.9920 0.1261 -0.0000
vn 0.7070 -0.0166 0.7070
vn 0.7015 0.1261 0.7015
vn -0.0000 -0.0166 0.9999
vn -0.0000 0.1261 0.9920
vn -0.7070 -0.0166 0.7070
vn -0.7015 0.1261 0.7015
vn -0.9999 -0.0166 -0.0000
vn -0.9920 0.1261 -0.0000
vn -0.7070 -0.0166 -0.7070
vn -0.7015 0.1261 -0.7015
vn -0.0000 -0.9003 -0.4353
vn -0.0000 0.9203 -0.3912
vn 0.3078 -0.9003 -0.3078
vn 0.2766 0.9203 -0.2766
vn 0.4353 -0.9003 -0.0000
vn 0.3912 0.9203 -0.0000
vn 0.3078 -0.9003 0.3078
vn 0.2766 0.9203 0.2766
vn -0.0000 -0.9003 0.4353
vn -0.0000 0.9203 0.3912
vn -0.3078 -0.9003 0.3078
vn -0.2766 0.9203 0.2766
vn -0.4353 -0.9003 -0.0000
vn -0.3912 0.9203 -0.0000
vn -0.3078 -0.9003 -0.3078
vn -0.2766 0.9203 -0.2766
vn 0.1894 -0.0991 -0.9769
vn 0.3772 -0.1681 -0.9107
vn 0.5568 -0.0991 -0.8247
vn 0.5808 0.1377 -0.8023
vn 0.3784 0.1498 -0.9135
vn 0.1567 0.1377 -0.9780
vn -0.0000 0.0420 -0.9991
vn -0.0000 0.0816 -0.9967
vn -0.0000 0.1069 -0.9943
vn 0.7031 0.1069 -0.7031
vn 0.7047 0.0816 -0.7047
vn 0.7065 0.0420 -0.7065
vn 0.8247 -0.0991 -0.5568
vn 0.9107 -0.1681 -0.3772
vn 0.9769 -0.0991 -0.1894
vn 0.9780 0.1377 -0.1567
vn 0.9135 0.1498 -0.3784
vn 0.8023 0.1377 -0.5808
vn 0.9943 0.1069 -0.0000
vn 0.9967 0.0816 -0.0000
vn 0.9991 0.0420 -0.0000
vn 0.9769 -0.0991 0.1894
vn 0.9107 -0.1681 0.3772
vn 0.8247 -0.0991 0.5568
vn 0.8023 0.1377 0.5808
vn 0.9135 0.1498 0.3784
vn 0.9780 0.1377 0.1567
vn 0.7031 0.1069 0.7031
vn 0.7047 0.0816 0.7047
vn 0.7065 0.0420 0.7065
vn 0.5568 -0.0991 0.8247
vn 0.3772 -0.1681 0.9107
vn 0.1894 -0.0991 0.9769
vn 0.1567 0.1377 0.9780
vn 0.3784 0.1498 0.9135
vn 0.5808 0.1377 0.8023
vn -0.0000 0.1069 0.9943
vn -0.0000 0.0816 0.9967
vn -0.0000 0.0420 0.9991
vn -0.1894 -0.0991 0.9769
vn -0.3772 -0.1681 0.9107
vn -0.5568 -0.0991 0.8247
vn -0.5808 0.1377 0.8023
vn -0.3784 0.1498 0.9135
vn -0.1567 0.1377 0.9780
vn -0.7031 0.1069 0.7031
vn -0.7047 0.0816 0.7047
vn -0.7065 0.0420 0.7065
vn -0.8247 -0.0991 0.5568
vn -0.9107 -0.1681 0.3772
vn -0.9769 -0.0991 0.1894
vn -0.9780 0.1377 0.1567
vn -0.9135 0.1498 0.3784
vn -0.8023 0.1377 0.5808
vn -0.9943 0.1069 -0.0000
vn -0.9967 0.0816 -0.0000
vn -0.9991 0.0420 -0.0000
vn -0.9769 -0.0991 -0.1894
vn -0.9107 -0.1681 -0.3772
vn -0.8247 -0.0991 -0.5568
vn -0.8023 0.1377 -0.5808
vn -0.9135 0.1498 -0.3784
vn -0.9780 0.1377 -0.1567
vn -0.7031 0.1069 -0.7031
vn -0.7047 0.0816 -0.7047
vn -0.7065 0.0420 -0.7065
vn -0.5568 -0.0991 -0.8247
vn -0.3772 -0.1681 -0.9107
vn -0.1894 -0.0991 -0.9769
vn -0.1567 0.1377 -0.9780
vn -0.3784 0.1498 -0.9135
vn -0.5808 0.1377 -0.8023
vn 0.0803 -0.9346 -0.3464
vn 0.1227 -0.9472 -0.2963
vn 0.1882 -0.9346 -0.3017
vn 0.1741 0.9456 -0.2750
vn 0.1143 0.9544 -0.2759
vn 0.0713 0.9456 -0.3175
vn -0.0000 -0.5958 -0.8032
vn -0.0000 0.1622 -0.9868
vn -0.0000 0.7524 -0.6587
vn 0.4658 0.7524 -0.4658
vn 0.6977 0.1622 -0.6977
vn 0.5679 -0.5958 -0.5679
vn 0.3017 -0.9346 -0.1882
vn 0.2963 -0.9472 -0.1227
vn 0.3464 -0.9346 -0.0803
vn 0.3175 0.9456 -0.0713
vn 0.2759 0.9544 -0.1143
vn 0.2750 0.9456 -0.1741
vn 0.6587 0.7524 -0.0000
vn 0.9868 0.1622 -0.0000
vn 0.8032 -0.5958 -0.0000
vn 0.3464 -0.9346 0.0803
vn 0.2963 -0.9472 0.1227
vn 0.3017 -0.9346 0.1882
vn 0.2750 0.9456 0.1741
vn 0.2759 0.9544 0.1143
vn 0.3175 0.9456 0.0713
vn 0.4658 0.7524 0.4658
vn 0.6977 0.1622 0.6977
vn 0.5679 -0.5958 0.5679
vn 0.1882 -0.9346 0.3017
vn 0.1227 -0.9472 0.2963
vn 0.0803 -0.9346 0.3464
vn 0.0713 0.9456 0.3175
vn 0.1143 0.9544 0.2759
vn 0.1741 0.9456 0.2750
vn -0.0000 0.7524 0.6587
vn -0.0000 0.1622 0.9868
vn -0.0000 -0.5958 0.8032
vn -0.0803 -0.9346 0.3464
vn -0.1227 -0.9472 0.2963
vn -0.1882 -0.9346 0.3017
vn -0.1741 0.9456 0.2750
vn -0.1143 0.9544 0.2759
vn -0.0713 0.9456 0.3175
vn -0.4658 0.7524 0.4658
vn -0.6977 0.1622 0.6977
vn -0.5679 -0.5958 0.5679
vn -0.3017 -0.9346 0.1882
vn -0.2963 -0.9472 0.1227
vn -0.3464 -0.9346 0.0803
vn -0.3175 0.9456 0.0713
vn -0.2759 0.9544 0.1143
vn -0.2750 0.9456 0.1741
vn -0.6587 0.7524 -0.0000
vn -0.9868 0.1622 -0.0000
vn -0.8032 -0.5958 -0.0000
vn -0.3464 -0.9346 -0.0803
vn -0.2963 -0.9472 -0.1227
vn -0.3017 -0.9346 -0.1882
vn -0.2750 0.9456 -0.1741
vn -0.2759 0.9544 -0.1143
vn -0.3175 0.9456 -0.0713
vn -0.4658 0.7524 -0.4658
vn -0.6977 0.1622 -0.6977
vn -0.5679 -0.5958 -0.5679
vn -0.1882 -0.9346 -0.3017
vn -0.1227 -0.9472 -0.2963
vn -0.0803 -0.9346 -0.3464
vn -0.0713 0.9456 -0.3175
vn -0.1143 0.9544 -0.2759
vn -0.1741 0.9456 -0.2750
vn 0.2688 0.0238 -0.9629
vn 0.2389 0.0803 -0.9677
vn 0.2292 0.1135 -0.9667
vn 0.3827 0.0048 -0.9239
vn 0.3815 0.0793 -0.9210
vn 0.3799 0.1197 -0.9172
vn 0.4908 0.0238 -0.8710
vn 0.5153 0.0803 -0.8532
vn 0.5215 0.1135 -0.8456
vn 0.8710 0.0238 -0.4908
vn 0.8532 0.0803 -0.5153
vn 0.8456 0.1135 -0.5215
vn 0.9239 0.0048 -0.3827
vn 0.9210 0.0793 -0.3815
vn 0.9172 0.1197 -0.3799
vn 0.9629 0.0238 -0.2688
vn 0.9677 0.0803 -0.2389
vn 0.9667 0.1135 -0.2292
vn 0.9629 0.0238 0.2688
vn 0.9677 0.0803 0.2389
vn 0.9667 0.1135 0.2292
vn 0.9239 0.0048 0.3827
vn 0.9210 0.0793 0.3815
vn 0.9172 0.1197 0.3799
vn 0.8710 0.0238 0.4908
vn 0.8532 0.0803 0.5153
vn 0.8456 0.1135 0.5215
vn 0.4908 0.0238 0.8710
vn 0.5153 0.0803 0.8532
vn 0.5215 0.1135 0.8456
vn 0.3827 0.0048 0.9239
vn 0.3815 0.0793 0.9210
vn 0.3799 0.1197 0.9172
vn 0.2688 0.0238 0.9629
vn 0.2389 0.0803 0.9677
vn 0.2292 0.1135 0.9667
vn -0.2688 0.0238 0.9629
vn -0.2389 0.0803 0.9677
vn -0.2292 0.1135 0.9667
vn -0.3827 0.0048 0.9239
vn -0.3815 0.0793 0.9210
vn -0.3799 0.1197 0.9172
vn -0.4908 0.0238 0.8710
vn -0.5153 0.0803 0.8532
vn -0.5215 0.1135 0.8456
vn -0.8710 0.0238 0.4908
vn -0.8532 0.0803 0.5153
vn -0.8456 0.1135 0.5215
vn -0.9239 0.0048 0.3827
vn -0.9210 0.0793 0.3815
vn -0.9172 0.1197 0.3799
vn -0.9629 0.0238 0.2688
vn -0.9677 0.0803 0.2389
vn -0.9667 0.1135 0.2292
vn -0.0000 1.0000 -0.0000
vn 0.6976 0.1636 -0.6976
vn 0.3692 0.2632 -0.8913
vn -0.0000 0.1636 -0.9865
vn -0.3692 0.2632 -0.8913
vn -0.6976 0.1636 -0.6976
vn -0.8913 0.2632 -0.3692
vn -0.9865 0.1636 -0.0000
vn -0.8913 0.2632 0.3692
vn -0.6976 0.1636 0.6976
vn -0.3692 0.2632 0.8913
vn -0.0000 0.1636 0.9865
vn 0.3692 0.2632 0.8913
vn 0.6976 0.1636 0.6976
vn 0.8913 0.2632 0.3692
vn 0.9865 0.1636 -0.0000
vn 0.8913 0.2632 -0.3692
vn -0.9629 0.0238 -0.2688
vn -0.9677 0.0803 -0.2389
vn -0.9667 0.1135 -0.2292
vn -0.9239 0.0048 -0.3827
vn -0.9210 0.0793 -0.3815
vn -0.9172 0.1197 -0.3799
vn -0.8710 0.0238 -0.4908
vn -0.8532 0.0803 -0.5153
vn -0.8456 0.1135 -0.5215
vn -0.4908 0.0238 -0.8710
vn -0.5153 0.0803 -0.8532
vn -0.5215 0.1135 -0.8456
vn -0.3827 0.0048 -0.9239
vn -0.3815 0.0793 -0.9210
vn -0.3799 0.1197 -0.9172
vn -0.2688 0.0238 -0.9629
vn -0.2389 0.0803 -0.9677
vn -0.2292 0.1135 -0.9667
vn -0.0000 -1.0000 -0.0000
vn -0.0000 -0.2898 -0.9571
vn 0.3205 -0.5464 -0.7738
vn 0.6768 -0.2898 -0.6768
vn 0.7738 -0.5464 -0.3205
vn 0.9571 -0.2898 -0.0000
vn 0.7738 -0.5464 0.3205
vn 0.6768 -0.2898 0.6768
vn 0.3205 -0.5464 0.7738
vn -0.0000 -0.2898 0.9571
vn -0.3205 -0.5464 0.7738
vn -0.6768 -0.2898 0.6768
vn -0.7738 -0.5464 0.3205
vn -0.9571 -0.2898 -0.0000
vn -0.7738 -0.5464 -0.3205
vn -0.6768 -0.2898 -0.6768
vn -0.3205 -0.5464 -0.7738
vn 0.1930 -0.6304 -0.7519
vn 0.2384 0.1581 -0.9582
vn 0.1570 0.7713 -0.6168
vn 0.2870 -0.6616 -0.6928
vn 0.3781 0.1544 -0.9128
vn 0.2353 0.7886 -0.5682
vn 0.3952 -0.6304 -0.6682
vn 0.5090 0.1581 -0.8461
vn 0.3251 0.7713 -0.5472
vn 0.6682 -0.6304 -0.3952
vn 0.8461 0.1581 -0.5090
vn 0.5472 0.7713 -0.3251
vn 0.6928 -0.6616 -0.2870
vn 0.9128 0.1544 -0.3781
vn 0.5682 0.7886 -0.2353
vn 0.7519 -0.6304 -0.1930
vn 0.9582 0.1581 -0.2384
vn 0.6168 0.7713 -0.1570
vn 0.7519 -0.6304 0.1930
vn 0.9582 0.1581 0.2384
vn 0.6168 0.7713 0.1570
vn 0.6928 -0.6616 0.2870
vn 0.9128 0.1544 0.3781
vn 0.5682 0.7886 0.2353
vn 0.6682 -0.6304 0.3952
vn 0.8461 0.1581 0.5090
vn 0.5472 0.7713 0.3251
vn 0.3952 -0.6304 0.6682
vn 0.5090 0.1581 0.8461
vn 0.3251 0.7713 0.5472
vn 0.2870 -0.6616 0.6928
vn 0.3781 0.1544 0.9128
vn 0.2353 0.7886 0.5682
vn 0.1930 -0.6304 0.7519
vn 0.2384 0.1581 0.9582
vn 0.1570 0.7713 0.6168
vn -0.1930 -0.6304 0.7519
vn -0.2384 0.1581 0.9582
vn -0.1570 0.7713 0.6168
vn -0.2870 -0.6616 0.6928
vn -0.3781 0.1544 0.9128
vn -0.2353 0.7886 0.5682
vn -0.3952 -0.6304 0.6682
vn -0.5090 0.1581 0.8461
vn -0.3251 0.7713 0.5472
vn -0.6682 -0.6304 0.3952
vn -0.8461 0.1581 0.5090
vn -0.5472 0.7713 0.3251
vn -0.6928 -0.6616 0.2870
vn -0.9128 0.1544 0.3781
vn -0.5682 0.7886 0.2353
vn -0.7519 -0.6304 0.1930
vn -0.9582 0.1581 0.2384
vn -0.6168 0.7713 0.1570
vn 0.1186 0.9858 -0.1186
vn 0.0456 0.9929 -0.1101
vn -0.0000 0.9858 -0.1678
vn -0.0456 0.9929 -0.1101
vn -0.1186 0.9858 -0.1186
vn -0.1101 0.9929 -0.0456
vn -0.1678 0.9858 -0.0000
vn -0.1101 0.9929 0.0456
vn -0.1186 0.9858 0.1186
vn -0.0456 0.9929 0.1101
vn -0.0000 0.9858 0.1678
vn 0.0456 0.9929 0.1101
vn 0.1186 0.9858 0.1186
vn 0.1101 0.9929 0.0456
vn 0.1678 0.9858 -0.0000
vn 0.1101 0.9929 -0.0456
vn -0.7519 -0.6304 -0.1930
vn -0.9582 0.1581 -0.2384
vn -0.6168 0.7713 -0.1570
vn -0.6928 -0.6616 -0.2870
vn -0.9128 0.1544 -0.3781
vn -0.5682 0.7886 -0.2353
vn -0.6682 -0.6304 -0.3952
vn -0.8461 0.1581 -0.5090
vn -0.5472 0.7713 -0.3251
vn -0.3952 -0.6304 -0.6682
vn -0.5090 0.1581 -0.8461
vn -0.3251 0.7713 -0.5472
vn -0.2870 -0.6616 -0.6928
vn -0.3781 0.1544 -0.9128
vn -0.2353 0.7886 -0.5682
vn -0.1930 -0.6304 -0.7519
vn -0.2384 0.1581 -0.9582
vn -0.1570 0.7713 -0.6168
vn -0.0000 -0.9866 -0.1630
vn 0.0434 -0.9936 -0.1048
vn 0.1152 -0.9866 -0.1152
vn 0.1048 -0.9936 -0.0434
vn 0.1630 -0.9866 -0.0000
vn 0.1048 -0.9936 0.0434
vn 0.1152 -0.9866 0.1152
vn 0.0434 -0.9936 0.1048
vn -0.0000 -0.9866 0.1630
vn -0.0434 -0.9936 0.1048
vn -0.1152 -0.9866 0.1152
vn -0.1048 -0.9936 0.0434
vn -0.1630 -0.9866 -0.0000
vn -0.1048 -0.9936 -0.0434
vn -0.1152 -0.9866 -0.1152
vn -0.0434 -0.9936 -0.1048
vt 0.968750 0.625000
vt 0.968750 0.750000
vt 0.937500 0.750000
vt 0.937500 0.625000
vt 0.968750 0.875000
vt 0.937500 0.875000
vt 0.906250 0.750000
vt 0.906250 0.625000
vt 0.906250 0.875000
vt 1.000000 0.500000
vt 1.000000 0.625000
vt 0.968750 0.500000
vt 1.000000 0.750000
vt 1.000000 0.875000
vt 1.000000 1.000000
vt 0.968750 1.000000
vt 0.937500 1.000000
vt 0.906250 1.000000
vt 0.875000 1.000000
vt 0.875000 0.875000
vt 0.875000 0.750000
vt 0.875000 0.625000
vt 0.906250 0.500000
vt 0.875000 0.500000
vt 0.937500 0.500000
vt 0.843750 0.625000
vt 0.843750 0.750000
vt 0.812500 0.750000
vt 0.812500 0.625000
vt 0.843750 0.875000
vt 0.812500 0.875000
vt 0.781250 0.750000
vt 0.781250 0.625000
vt 0.781250 0.875000
vt 0.843750 0.500000
vt 0.843750 1.000000
vt 0.812500 1.000000
vt 0.781250 1.000000
vt 0.750000 1.000000
vt 0.750000 0.875000
vt 0.750000 0.750000
vt 0.750000 0.625000
vt 0.781250 0.500000
vt 0.750000 0.500000
vt 0.812500 0.500000
vt 0.718750 0.625000
vt 0.718750 0.750000
vt 0.687500 0.750000
vt 0.687500 0.625000
vt 0.718750 0.875000
vt 0.687500 0.875000
vt 0.656250 0.750000
vt 0.656250 0.625000
vt 0.656250 0.875000
vt 0.718750 0.500000
vt 0.718750 1.000000
vt 0.687500 1.000000
vt 0.656250 1.000000
vt 0.625000 1.000000
vt 0.625000 0.875000
vt 0.625000 0.750000
vt 0.625000 0.625000
vt 0.656250 0.500000
vt 0.625000 0.500000
vt 0.687500 0.500000
vt 0.593750 0.625000
vt 0.593750 0.750000
vt 0.562500 0.750000
vt 0.562500 0.625000
vt 0.593750 0.875000
vt 0.562500 0.875000
vt 0.531250 0.750000
vt 0.531250 0.625000
vt 0.531250 0.875000
vt 0.593750 0.500000
vt 0.593750 1.000000
vt 0.562500 1.000000
vt 0.531250 1.000000
vt 0.500000 1.000000
vt 0.500000 0.875000
vt 0.500000 0.750000
vt 0.500000 0.625000
vt 0.531250 0.500000
vt 0.500000 0.500000
vt 0.562500 0.500000
vt 0.468750 0.625000
vt 0.468750 0.750000
vt 0.437500 0.750000
vt 0.437500 0.625000
vt 0.468750 0.875000
vt 0.437500 0.875000
vt 0.406250 0.750000
vt 0.406250 0.625000
vt 0.406250 0.875000
vt 0.468750 0.500000
vt 0.468750 1.000000
vt 0.437500 1.000000
vt 0.406250 1.000000
vt 0.375000 1.000000
vt 0.375000 0.875000
vt 0.375000 0.750000
vt 0.375000 0.625000
vt 0.406250 0.500000
vt 0.375000 0.500000
vt 0.437500 0.500000
vt 0.343750 0.625000
vt 0.343750 0.750000
vt 0.312500 0.750000
vt 0.312500 0.625000
vt 0.343750 0.875000
vt 0.312500 0.875000
vt 0.281250 0.750000
vt 0.281250 0.625000
vt 0.281250 0.875000
vt 0.343750 0.500000
vt 0.343750 1.000000
vt 0.312500 1.000000
vt 0.281250 1.000000
vt 0.250000 1.000000
vt 0.250000 0.875000
vt 0.250000 0.750000
vt 0.250000 0.625000
vt 0.281250 0.500000
vt 0.250000 0.500000
vt 0.312500 0.500000
vt 0.367698 0.367698
vt 0.301054 0.373256
vt 0.250000 0.250000
vt 0.373256 0.301054
vt 0.250000 0.416450
vt 0.198946 0.373256
vt 0.132302 0.367698
vt 0.126744 0.301054
vt 0.083550 0.250000
vt 0.126744 0.198946
vt 0.132302 0.132302
vt 0.198946 0.126744
vt 0.250000 0.083550
vt 0.301054 0.126744
vt 0.367698 0.132302
vt 0.373256 0.198946
vt 0.416450 0.250000
vt 0.419706 0.419706
vt 0.377279 0.437279
vt 0.437279 0.377279
vt 0.334853 0.454853
vt 0.454853 0.334853
vt 0.250000 0.490000
vt 0.207574 0.472426
vt 0.292426 0.472426
vt 0.165147 0.454853
vt 0.080294 0.419706
vt 0.062721 0.377279
vt 0.122721 0.437279
vt 0.045147 0.334853
vt 0.010000 0.250000
vt 0.027574 0.207574
vt 0.027574 0.292426
vt 0.045147 0.165147
vt 0.080294 0.080294
vt 0.122721 0.062721
vt 0.062721 0.122721
vt 0.165147 0.045147
vt 0.250000 0.010000
vt 0.292426 0.027574
vt 0.207574 0.027574
vt 0.334853 0.045147
vt 0.419706 0.080294
vt 0.437279 0.122721
vt 0.377279 0.062721
vt 0.454853 0.165147
vt 0.490000 0.250000
vt 0.472426 0.292426
vt 0.472426 0.207574
vt 0.218750 0.625000
vt 0.218750 0.750000
vt 0.187500 0.750000
vt 0.187500 0.625000
vt 0.218750 0.875000
vt 0.187500 0.875000
vt 0.156250 0.750000
vt 0.156250 0.625000
vt 0.156250 0.875000
vt 0.218750 0.500000
vt 0.218750 1.000000
vt 0.187500 1.000000
vt 0.156250 1.000000
vt 0.125000 1.000000
vt 0.125000 0.875000
vt 0.125000 0.750000
vt 0.125000 0.625000
vt 0.156250 0.500000
vt 0.125000 0.500000
vt 0.187500 0.500000
vt 0.093750 0.625000
vt 0.093750 0.750000
vt 0.062500 0.750000
vt 0.062500 0.625000
vt 0.093750 0.875000
vt 0.062500 0.875000
vt 0.031250 0.750000
vt 0.031250 0.625000
vt 0.031250 0.875000
vt 0.093750 0.500000
vt 0.093750 1.000000
vt 0.062500 1.000000
vt 0.031250 1.000000
vt 0.000000 1.000000
vt 0.000000 0.875000
vt 0.000000 0.750000
vt 0.000000 0.625000
vt 0.031250 0.500000
vt 0.000000 0.500000
vt 0.062500 0.500000
vt 0.750000 0.416450
vt 0.801054 0.373256
vt 0.750000 0.250000
vt 0.698946 0.373256
vt 0.867698 0.367698
vt 0.873256 0.301054
vt 0.916450 0.250000
vt 0.873256 0.198946
vt 0.867698 0.132302
vt 0.801054 0.126744
vt 0.750000 0.083550
vt 0.698946 0.126744
vt 0.632302 0.132302
vt 0.626744 0.198946
vt 0.583550 0.250000
vt 0.626744 0.301054
vt 0.632302 0.367698
vt 0.750000 0.490000
vt 0.792426 0.472426
vt 0.707574 0.472426
vt 0.834853 0.454853
vt 0.665147 0.454853
vt 0.919706 0.419706
vt 0.937279 0.377279
vt 0.877279 0.437279
vt 0.954853 0.334853
vt 0.990000 0.250000
vt 0.972427 0.207574
vt 0.972427 0.292426
vt 0.954853 0.165147
vt 0.919706 0.080294
vt 0.877279 0.062721
vt 0.937279 0.122721
vt 0.834853 0.045147
vt 0.750000 0.010000
vt 0.707574 0.027574
vt 0.792426 0.027574
vt 0.665147 0.045147
vt 0.580294 0.080294
vt 0.562721 0.122721
vt 0.622721 0.062721
vt 0.545147 0.165147
vt 0.510000 0.250000
vt 0.527574 0.292426
vt 0.527574 0.207574
vt 0.545147 0.334853
vt 0.580294 0.419706
vt 0.622721 0.437279
vt 0.562721 0.377279
vt 0.367698 0.367698
vt 0.301054 0.373256
vt 0.250000 0.416450
vt 0.198946 0.373256
vt 0.132302 0.367698
vt 0.083550 0.250000
vt 0.301054 0.126744
vt 0.367698 0.132302
vt 0.373256 0.198946
vt 0.416450 0.250000
vt 0.080294 0.419706
vt 0.062721 0.377279
vt 0.122721 0.437279
vt 0.045147 0.334853
vt 0.027574 0.207574
vt 0.027574 0.292426
vt 0.045147 0.165147
vt 0.080294 0.080294
vt 0.122721 0.062721
vt 0.062721 0.122721
vt 0.165147 0.045147
vt 0.292426 0.027574
vt 0.207574 0.027574
vt 0.334853 0.045147
vt 0.419706 0.080294
vt 0.437279 0.122721
vt 0.377279 0.062721
vt 0.750000 0.416450
vt 0.698946 0.373256
vt 0.867698 0.367698
vt 0.626744 0.198946
vt 0.626744 0.301054
vt 0.632302 0.367698
vt 0.919706 0.080294
vt 0.877279 0.062721
vt 0.937279 0.122721
vt 0.834853 0.045147
vt 0.707574 0.027574
vt 0.792426 0.027574
vt 0.665147 0.045147
vt 0.580294 0.080294
vt 0.562721 0.122721
vt 0.622721 0.062721
s 1
f 177/1/177 178/2/178 181/3/181 180/4/180
f 178/2/178 179/5/179 182/6/182 181/3/181
f 180/4/180 181/3/181 184/7/184 183/8/183
f 181/3/181 182/6/182 185/9/185 184/7/184
f 1/10/1 39/11/39 177/1/177 33/12/33
f 39/11/39 40/13/40 178/2/178 177/1/177
f 40/13/40 41/14/41 179/5/179 178/2/178
f 41/14/41 2/15/2 38/16/38 179/5/179
f 179/5/179 38/16/38 37/17/37 182/6/182
f 182/6/182 37/17/37 36/18/36 185/9/185
f 185/9/185 36/18/36 4/19/4 42/20/42
f 184/7/184 185/9/185 42/20/42 43/21/43
f 183/8/183 184/7/184 43/21/43 44/22/44
f 35/23/35 183/8/183 44/22/44 3/24/3
f 34/25/34 180/4/180 183/8/183 35/23/35
f 33/12/33 177/1/177 180/4/180 34/25/34
f 186/26/186 187/27/187 190/28/190 189/29/189
f 187/27/187 188/30/188 191/31/191 190/28/190
f 189/29/189 190/28/190 193/32/193 192/33/192
f 190/28/190 191/31/191 194/34/194 193/32/193
f 3/24/3 44/22/44 186/26/186 45/35/45
f 44/22/44 43/21/43 187/27/187 186/26/186
f 43/21/43 42/20/42 188/30/188 187/27/187
f 42/20/42 4/19/4 50/36/50 188/30/188
f 188/30/188 50/36/50 49/37/49 191/31/191
f 191/31/191 49/37/49 48/38/48 194/34/194
f 194/34/194 48/38/48 6/39/6 51/40/51
f 193/32/193 194/34/194 51/40/51 52/41/52
f 192/33/192 193/32/193 52/41/52 53/42/53
f 47/43/47 192/33/192 53/42/53 5/44/5
f 46/45/46 189/29/189 192/33/192 47/43/47
f 45/35/45 186/26/186 189/29/189 46/45/46
f 195/46/195 196/47/196 199/48/199 198/49/198
f 196/47/196 197/50/197 200/51/200 199/48/199
f 198/49/198 199/48/199 202/52/202 201/53/201
f 199/48/199 200/51/200 203/54/203 202/52/202
f 5/44/5 53/42/53 195/46/195 54/55/54
f 53/42/53 52/41/52 196/47/196 195/46/195
f 52/41/52 51/40/51 197/50/197 196/47/196
f 51/40/51 6/39/6 59/56/59 197/50/197
f 197/50/197 59/56/59 58/57/58 200/51/200
f 200/51/200 58/57/58 57/58/57 203/54/203
f 203/54/203 57/58/57 8/59/8 60/60/60
f 202/52/202 203/54/203 60/60/60 61/61/61
f 201/53/201 202/52/202 61/61/61 62/62/62
f 56/63/56 201/53/201 62/62/62 7/64/7
f 55/65/55 198/49/198 201/53/201 56/63/56
f 54/55/54 195/46/195 198/49/198 55/65/55
f 204/66/204 205/67/205 208/68/208 207/69/207
f 205/67/205 206/70/206 209/71/209 208/68/208
f 207/69/207 208/68/208 211/72/211 210/73/210
f 208/68/208 209/71/209 212/74/212 211/72/211
f 7/64/7 62/62/62 204/66/204 63/75/63
f 62/62/62 61/61/61 205/67/205 204/66/204
f 61/61/61 60/60/60 206/70/206 205/67/205
f 60/60/60 8/59/8 68/76/68 206/70/206
f 206/70/206 68/76/68 67/77/67 209/71/209
f 209/71/209 67/77/67 66/78/66 212/74/212
f 212/74/212 66/78/66 10/79/10 69/80/69
f 211/72/211 212/74/212 69/80/69 70/81/70
f 210/73/210 211/72/211 70/81/70 71/82/71
f 65/83/65 210/73/210 71/82/71 9/84/9
f 64/85/64 207/69/207 210/73/210 65/83/65
f 63/75/63 204/66/204 207/69/207 64/85/64
f 213/86/213 214/87/214 217/88/217 216/89/216
f 214/87/214 215/90/215 218/91/218 217/88/217
f 216/89/216 217/88/217 220/92/220 219/93/219
f 217/88/217 218/91/218 221/94/221 220/92/220
f 9/84/9 71/82/71 213/86/213 72/95/72
f 71/82/71 70/81/70 214/87/214 213/86/213
f 70/81/70 69/80/69 215/90/215 214/87/214
f 69/80/69 10/79/10 77/96/77 215/90/215
f 215/90/215 77/96/77 76/97/76 218/91/218
f 218/91/218 76/97/76 75/98/75 221/94/221
f 221/94/221 75/98/75 12/99/12 78/100/78
f 220/92/220 221/94/221 78/100/78 79/101/79
f 219/93/219 220/92/220 79/101/79 80/102/80
f 74/103/74 219/93/219 80/102/80 11/104/11
f 73/105/73 216/89/216 219/93/219 74/103/74
f 72/95/72 213/86/213 216/89/216 73/105/73
f 222/106/222 223/107/223 226/108/226 225/109/225
f 223/107/223 224/110/224 227/111/227 226/108/226
f 225/109/225 226/108/226 229/112/229 228/113/228
f 226/108/226 227/111/227 230/114/230 229/112/229
f 11/104/11 80/102/80 222/106/222 81/115/81
f 80/102/80 79/101/79 223/107/223 222/106/222
f 79/101/79 78/100/78 224/110/224 223/107/223
f 78/100/78 12/99/12 86/116/86 224/110/224
f 224/110/224 86/116/86 85/117/85 227/111/227
f 227/111/227 85/117/85 84/118/84 230/114/230
f 230/114/230 84/118/84 14/119/14 87/120/87
f 229/112/229 230/114/230 87/120/87 88/121/88
f 228/113/228 229/112/229 88/121/88 89/122/89
f 83/123/83 228/113/228 89/122/89 13/124/13
f 82/125/82 225/109/225 228/113/228 83/123/83
f 81/115/81 222/106/222 225/109/225 82/125/82
f 232/126/232 233/127/233 231/128/231 247/129/247
f 234/130/234 235/131/235 231/128/231 233/127/233
f 236/132/236 237/133/237 231/128/231 235/131/235
f 238/134/238 239/135/239 231/128/231 237/133/237
f 240/136/240 241/137/241 231/128/231 239/135/239
f 242/138/242 243/139/243 231/128/231 241/137/241
f 244/140/244 245/141/245 231/128/231 243/139/243
f 246/142/246 247/129/247 231/128/231 245/141/245
f 4/143/4 36/144/36 232/126/232 50/145/50
f 36/144/36 37/146/37 233/127/233 232/126/232
f 50/145/50 232/126/232 247/129/247 49/147/49
f 2/148/2 102/149/102 234/130/234 38/150/38
f 102/149/102 103/151/103 235/131/235 234/130/234
f 38/150/38 234/130/234 233/127/233 37/146/37
f 16/152/16 93/153/93 236/132/236 104/154/104
f 93/153/93 94/155/94 237/133/237 236/132/236
f 104/154/104 236/132/236 235/131/235 103/151/103
f 14/156/14 84/157/84 238/134/238 95/158/95
f 84/157/84 85/159/85 239/135/239 238/134/238
f 95/158/95 238/134/238 237/133/237 94/155/94
f 12/160/12 75/161/75 240/136/240 86/162/86
f 75/161/75 76/163/76 241/137/241 240/136/240
f 86/162/86 240/136/240 239/135/239 85/159/85
f 10/164/10 66/165/66 242/138/242 77/166/77
f 66/165/66 67/167/67 243/139/243 242/138/242
f 77/166/77 242/138/242 241/137/241 76/163/76
f 8/168/8 57/169/57 244/140/244 68/170/68
f 57/169/57 58/171/58 245/141/245 244/140/244
f 68/170/68 244/140/244 243/139/243 67/167/67
f 6/172/6 48/173/48 246/142/246 59/174/59
f 48/173/48 49/147/49 247/129/247 246/142/246
f 59/174/59 246/142/246 245/141/245 58/171/58
f 248/175/248 249/176/249 252/177/252 251/178/251
f 249/176/249 250/179/250 253/180/253 252/177/252
f 251/178/251 252/177/252 255/181/255 254/182/254
f 252/177/252 253/180/253 256/183/256 255/181/255
f 13/124/13 89/122/89 248/175/248 90/184/90
f 89/122/89 88/121/88 249/176/249 248/175/248
f 88/121/88 87/120/87 250/179/250 249/176/249
f 87/120/87 14/119/14 95/185/95 250/179/250
f 250/179/250 95/185/95 94/186/94 253/180/253
f 253/180/253 94/186/94 93/187/93 256/183/256
f 256/183/256 93/187/93 16/188/16 96/189/96
f 255/181/255 256/183/256 96/189/96 97/190/97
f 254/182/254 255/181/255 97/190/97 98/191/98
f 92/192/92 254/182/254 98/191/98 15/193/15
f 91/194/91 251/178/251 254/182/254 92/192/92
f 90/184/90 248/175/248 251/178/251 91/194/91
f 257/195/257 258/196/258 261/197/261 260/198/260
f 258/196/258 259/199/259 262/200/262 261/197/261
f 260/198/260 261/197/261 264/201/264 263/202/263
f 261/197/261 262/200/262 265/203/265 264/201/264
f 15/193/15 98/191/98 257/195/257 99/204/99
f 98/191/98 97/190/97 258/196/258 257/195/257
f 97/190/97 96/189/96 259/199/259 258/196/258
f 96/189/96 16/188/16 104/205/104 259/199/259
f 259/199/259 104/205/104 103/206/103 262/200/262
f 262/200/262 103/206/103 102/207/102 265/203/265
f 265/203/265 102/207/102 2/208/2 41/209/41
f 264/201/264 265/203/265 41/209/41 40/210/40
f 263/202/263 264/201/264 40/210/40 39/211/39
f 101/212/101 263/202/263 39/211/39 1/213/1
f 100/214/100 260/198/260 263/202/263 101/212/101
f 99/204/99 257/195/257 260/198/260 100/214/100
f 267/215/267 268/216/268 266/217/266 282/218/282
f 269/219/269 270/220/270 266/217/266 268/216/268
f 271/221/271 272/222/272 266/217/266 270/220/270
f 273/223/273 274/224/274 266/217/266 272/222/272
f 275/225/275 276/226/276 266/217/266 274/224/274
f 277/227/277 278/228/278 266/217/266 276/226/276
f 279/229/279 280/230/280 266/217/266 278/228/278
f 281/231/281 282/218/282 266/217/266 280/230/280
f 1/232/1 33/233/33 267/215/267 101/234/101
f 33/233/33 34/235/34 268/216/268 267/215/267
f 101/234/101 267/215/267 282/218/282 100/236/100
f 3/237/3 45/238/45 269/219/269 35/239/35
f 45/238/45 46/240/46 270/220/270 269/219/269
f 35/239/35 269/219/269 268/216/268 34/235/34
f 5/241/5 54/242/54 271/221/271 47/243/47
f 54/242/54 55/244/55 272/222/272 271/221/271
f 47/243/47 271/221/271 270/220/270 46/240/46
f 7/245/7 63/246/63 273/223/273 56/247/56
f 63/246/63 64/248/64 274/224/274 273/223/273
f 56/247/56 273/223/273 272/222/272 55/244/55
f 9/249/9 72/250/72 275/225/275 65/251/65
f 72/250/72 73/252/73 276/226/276 275/225/275
f 65/251/65 275/225/275 274/224/274 64/248/64
f 11/253/11 81/254/81 277/227/277 74/255/74
f 81/254/81 82/256/82 278/228/278 277/227/277
f 74/255/74 277/227/277 276/226/276 73/252/73
f 13/257/13 90/258/90 279/229/279 83/259/83
f 90/258/90 91/260/91 280/230/280 279/229/279
f 83/259/83 279/229/279 278/228/278 82/256/82
f 15/261/15 99/262/99 281/231/281 92/263/92
f 99/262/99 100/236/100 282/218/282 281/231/281
f 92/263/92 281/231/281 280/230/280 91/260/91
f 283/1/283 284/2/284 287/3/287 286/4/286
f 284/2/284 285/5/285 288/6/288 287/3/287
f 286/4/286 287/3/287 290/7/290 289/8/289
f 287/3/287 288/6/288 291/9/291 290/7/290
f 17/10/17 111/11/111 283/1/283 105/12/105
f 111/11/111 112/13/112 284/2/284 283/1/283
f 112/13/112 113/14/113 285/5/285 284/2/284
f 113/14/113 18/15/18 110/16/110 285/5/285
f 285/5/285 110/16/110 109/17/109 288/6/288
f 288/6/288 109/17/109 108/18/108 291/9/291
f 291/9/291 108/18/108 20/19/20 114/20/114
f 290/7/290 291/9/291 114/20/114 115/21/115
f 289/8/289 290/7/290 115/21/115 116/22/116
f 107/23/107 289/8/289 116/22/116 19/24/19
f 106/25/106 286/4/286 289/8/289 107/23/107
f 105/12/105 283/1/283 286/4/286 106/25/106
f 292/26/292 293/27/293 296/28/296 295/29/295
f 293/27/293 294/30/294 297/31/297 296/28/296
f 295/29/295 296/28/296 299/32/299 298/33/298
f 296/28/296 297/31/297 300/34/300 299/32/299
f 19/24/19 116/22/116 292/26/292 117/35/117
f 116/22/116 115/21/115 293/27/293 292/26/292
f 115/21/115 114/20/114 294/30/294 293/27/293
f 114/20/114 20/19/20 122/36/122 294/30/294
f 294/30/294 122/36/122 121/37/121 297/31/297
f 297/31/297 121/37/121 120/38/120 300/34/300
f 300/34/300 120/38/120 22/39/22 123/40/123
f 299/32/299 300/34/300 123/40/123 124/41/124
f 298/33/298 299/32/299 124/41/124 125/42/125
f 119/43/119 298/33/298 125/42/125 21/44/21
f 118/45/118 295/29/295 298/33/298 119/43/119
f 117/35/117 292/26/292 295/29/295 118/45/118
f 301/46/301 302/47/302 305/48/305 304/49/304
f 302/47/302 303/50/303 306/51/306 305/48/305
f 304/49/304 305/48/305 308/52/308 307/53/307
f 305/48/305 306/51/306 309/54/309 308/52/308
f 21/44/21 125/42/125 301/46/301 126/55/126
f 125/42/125 124/41/124 302/47/302 301/46/301
f 124/41/124 123/40/123 303/50/303 302/47/302
f 123/40/123 22/39/22 131/56/131 303/50/303
f 303/50/303 131/56/131 130/57/130 306/51/306
f 306/51/306 130/57/130 129/58/129 309/54/309
f 309/54/309 129/58/129 24/59/24 132/60/132
f 308/52/308 309/54/309 132/60/132 133/61/133
f 307/53/307 308/52/308 133/61/133 134/62/134
f 128/63/128 307/53/307 134/62/134 23/64/23
f 127/65/127 304/49/304 307/53/307 128/63/128
f 126/55/126 301/46/301 304/49/304 127/65/127
f 310/66/310 311/67/311 314/68/314 313/69/313
f 311/67/311 312/70/312 315/71/315 314/68/314
f 313/69/313 314/68/314 317/72/317 316/73/316
f 314/68/314 315/71/315 318/74/318 317/72/317
f 23/64/23 134/62/134 310/66/310 135/75/135
f 134/62/134 133/61/133 311/67/311 310/66/310
f 133/61/133 132/60/132 312/70/312 311/67/311
f 132/60/132 24/59/24 140/76/140 312/70/312
f 312/70/312 140/76/140 139/77/139 315/71/315
f 315/71/315 139/77/139 138/78/138 318/74/318
f 318/74/318 138/78/138 26/79/26 141/80/141
f 317/72/317 318/74/318 141/80/141 142/81/142
f 316/73/316 317/72/317 142/81/142 143/82/143
f 137/83/137 316/73/316 143/82/143 25/84/25
f 136/85/136 313/69/313 316/73/316 137/83/137
f 135/75/135 310/66/310 313/69/313 136/85/136
f 319/86/319 320/87/320 323/88/323 322/89/322
f 320/87/320 321/90/321 324/91/324 323/88/323
f 322/89/322 323/88/323 326/92/326 325/93/325
f 323/88/323 324/91/324 327/94/327 326/92/326
f 25/84/25 143/82/143 319/86/319 144/95/144
f 143/82/143 142/81/142 320/87/320 319/86/319
f 142/81/142 141/80/141 321/90/321 320/87/320
f 141/80/141 26/79/26 149/96/149 321/90/321
f 321/90/321 149/96/149 148/97/148 324/91/324
f 324/91/324 148/97/148 147/98/147 327/94/327
f 327/94/327 147/98/147 28/99/28 150/100/150
f 326/92/326 327/94/327 150/100/150 151/101/151
f 325/93/325 326/92/326 151/101/151 152/102/152
f 146/103/146 325/93/325 152/102/152 27/104/27
f 145/105/145 322/89/322 325/93/325 146/103/146
f 144/95/144 319/86/319 322/89/322 145/105/145
f 328/106/328 329/107/329 332/108/332 331/109/331
f 329/107/329 330/110/330 333/111/333 332/108/332
f 331/109/331 332/108/332 335/112/335 334/113/334
f 332/108/332 333/111/333 336/114/336 335/112/335
f 27/104/27 152/102/152 328/106/328 153/115/153
f 152/102/152 151/101/151 329/107/329 328/106/328
f 151/101/151 150/100/150 330/110/330 329/107/329
f 150/100/150 28/99/28 158/116/158 330/110/330
f 330/110/330 158/116/158 157/117/157 333/111/333
f 333/111/333 157/117/157 156/118/156 336/114/336
f 336/114/336 156/118/156 30/119/30 159/120/159
f 335/112/335 336/114/336 159/120/159 160/121/160
f 334/113/334 335/112/335 160/121/160 161/122/161
f 155/123/155 334/113/334 161/122/161 29/124/29
f 154/125/154 331/109/331 334/113/334 155/123/155
f 153/115/153 328/106/328 331/109/331 154/125/154
f 338/264/337 339/265/338 337/128/231 353/129/352
f 340/266/339 341/267/340 337/128/231 339/265/338
f 342/268/341 343/133/342 337/128/231 341/267/340
f 344/269/343 345/135/344 337/128/231 343/133/342
f 346/136/345 347/137/346 337/128/231 345/135/344
f 348/138/347 349/270/348 337/128/231 347/137/346
f 350/271/349 351/272/350 337/128/231 349/270/348
f 352/273/351 353/129/352 337/128/231 351/272/350
f 20/143/20 108/144/108 338/264/337 122/145/122
f 108/144/108 109/146/109 339/265/338 338/264/337
f 122/145/122 338/264/337 353/129/352 121/147/121
f 18/148/18 174/149/174 340/266/339 110/150/110
f 174/149/174 175/151/175 341/267/340 340/266/339
f 110/150/110 340/266/339 339/265/338 109/146/109
f 32/274/32 165/275/165 342/268/341 176/276/176
f 165/275/165 166/277/166 343/133/342 342/268/341
f 176/276/176 342/268/341 341/267/340 175/151/175
f 30/156/30 156/278/156 344/269/343 167/279/167
f 156/278/156 157/280/157 345/135/344 344/269/343
f 167/279/167 344/269/343 343/133/342 166/277/166
f 28/281/28 147/282/147 346/136/345 158/283/158
f 147/282/147 148/284/148 347/137/346 346/136/345
f 158/283/158 346/136/345 345/135/344 157/280/157
f 26/164/26 138/285/138 348/138/347 149/286/149
f 138/285/138 139/287/139 349/270/348 348/138/347
f 149/286/149 348/138/347 347/137/346 148/284/148
f 24/288/24 129/289/129 350/271/349 140/290/140
f 129/289/129 130/171/130 351/272/350 350/271/349
f 140/290/140 350/271/349 349/270/348 139/287/139
f 22/172/22 120/173/120 352/273/351 131/174/131
f 120/173/120 121/147/121 353/129/352 352/273/351
f 131/174/131 352/273/351 351/272/350 130/171/130
f 354/175/353 355/176/354 358/177/357 357/178/356
f 355/176/354 356/179/355 359/180/358 358/177/357
f 357/178/356 358/177/357 361/181/360 360/182/359
f 358/177/357 359/180/358 362/183/361 361/181/360
f 29/124/29 161/122/161 354/175/353 162/184/162
f 161/122/161 160/121/160 355/176/354 354/175/353
f 160/121/160 159/120/159 356/179/355 355/176/354
f 159/120/159 30/119/30 167/185/167 356/179/355
f 356/179/355 167/185/167 166/186/166 359/180/358
f 359/180/358 166/186/166 165/187/165 362/183/361
f 362/183/361 165/187/165 32/188/32 168/189/168
f 361/181/360 362/183/361 168/189/168 169/190/169
f 360/182/359 361/181/360 169/190/169 170/191/170
f 164/192/164 360/182/359 170/191/170 31/193/31
f 163/194/163 357/178/356 360/182/359 164/192/164
f 162/184/162 354/175/353 357/178/356 163/194/163
f 363/195/362 364/196/363 367/197/366 366/198/365
f 364/196/363 365/199/364 368/200/367 367/197/366
f 366/198/365 367/197/366 370/201/369 369/202/368
f 367/197/366 368/200/367 371/203/370 370/201/369
f 31/193/31 170/191/170 363/195/362 171/204/171
f 170/191/170 169/190/169 364/196/363 363/195/362
f 169/190/169 168/189/168 365/199/364 364/196/363
f 168/189/168 32/188/32 176/205/176 365/199/364
f 365/199/364 176/205/176 175/206/175 368/200/367
f 368/200/367 175/206/175 174/207/174 371/203/370
f 371/203/370 174/207/174 18/208/18 113/209/113
f 370/201/369 371/203/370 113/209/113 112/210/112
f 369/202/368 370/201/369 112/210/112 111/211/111
f 173/212/173 369/202/368 111/211/111 17/213/17
f 172/214/172 366/198/365 369/202/368 173/212/173
f 171/204/171 363/195/362 366/198/365 172/214/172
f 373/291/371 374/216/372 372/217/266 388/292/386
f 375/293/373 376/220/374 372/217/266 374/216/372
f 377/221/375 378/222/376 372/217/266 376/220/374
f 379/223/377 380/224/378 372/217/266 378/222/376
f 381/225/379 382/226/380 372/217/266 380/224/378
f 383/227/381 384/294/382 372/217/266 382/226/380
f 385/229/383 386/295/384 372/217/266 384/294/382
f 387/296/385 388/292/386 372/217/266 386/295/384
f 17/232/17 105/233/105 373/291/371 173/234/173
f 105/233/105 106/235/106 374/216/372 373/291/371
f 173/234/173 373/291/371 388/292/386 172/236/172
f 19/237/19 117/238/117 375/293/373 107/239/107
f 117/238/117 118/240/118 376/220/374 375/293/373
f 107/239/107 375/293/373 374/216/372 106/235/106
f 21/241/21 126/242/126 377/221/375 119/243/119
f 126/242/126 127/244/127 378/222/376 377/221/375
f 119/243/119 377/221/375 376/220/374 118/240/118
f 23/297/23 135/298/135 379/223/377 128/299/128
f 135/298/135 136/300/136 380/224/378 379/223/377
f 128/299/128 379/223/377 378/222/376 127/244/127
f 25/249/25 144/301/144 381/225/379 137/302/137
f 144/301/144 145/303/145 382/226/380 381/225/379
f 137/302/137 381/225/379 380/224/378 136/300/136
f 27/304/27 153/305/153 383/227/381 146/306/146
f 153/305/153 154/256/154 384/294/382 383/227/381
f 146/306/146 383/227/381 382/226/380 145/303/145
f 29/257/29 162/258/162 385/229/383 155/259/155
f 162/258/162 163/260/163 386/295/384 385/229/383
f 155/259/155 385/229/383 384/294/382 154/256/154
f 31/261/31 171/262/171 387/296/385 164/263/164
f 171/262/171 172/236/172 388/292/386 387/296/385
f 164/263/164 387/296/385 386/295/384 163/260/163
