# Blender 5.2.1 LTS
# www.blender.org
o leg_knife_slash
v 0.965926 0.000000 0.258819
v 0.950380 0.000000 0.311091
v 0.937327 0.003597 0.306818
v 0.924274 0.000000 0.302546
v 0.937327 -0.003597 0.306818
v 0.932008 0.000000 0.362438
v 0.906461 0.007179 0.352503
v 0.880914 0.000000 0.342569
v 0.906461 -0.007179 0.352503
v 0.910864 0.000000 0.412707
v 0.873547 0.010730 0.395799
v 0.836230 0.000000 0.378891
v 0.873547 -0.010730 0.395799
v 0.887011 0.000000 0.461749
v 0.838800 0.014235 0.436652
v 0.790589 0.000000 0.411555
v 0.838800 -0.014235 0.436652
v 0.860520 0.000000 0.509417
v 0.802433 0.017679 0.475030
v 0.744346 0.000000 0.440643
v 0.802433 -0.017679 0.475030
v 0.831470 0.000000 0.555570
v 0.764650 0.021048 0.510923
v 0.697830 0.000000 0.466275
v 0.764650 -0.021048 0.510923
v 0.799947 0.000000 0.600071
v 0.725647 0.024326 0.544336
v 0.651347 0.000000 0.488601
v 0.725647 -0.024326 0.544336
v 0.766044 0.000000 0.642788
v 0.685610 0.027500 0.575295
v 0.605175 0.000000 0.507802
v 0.685610 -0.027500 0.575295
v 0.729864 0.000000 0.683592
v 0.644711 0.030556 0.603838
v 0.559558 0.000000 0.524083
v 0.644711 -0.030556 0.603838
v 0.691513 0.000000 0.722364
v 0.603110 0.033482 0.630017
v 0.514707 0.000000 0.537670
v 0.603110 -0.033482 0.630017
v 0.651105 0.000000 0.758987
v 0.560952 0.036264 0.653896
v 0.470798 0.000000 0.548805
v 0.560952 -0.036264 0.653896
v 0.608761 0.000000 0.793353
v 0.518365 0.038891 0.675546
v 0.427969 0.000000 0.557739
v 0.518365 -0.038891 0.675546
v 0.564607 0.000000 0.825360
v 0.475463 0.041351 0.695047
v 0.386319 0.000000 0.564734
v 0.475463 -0.041351 0.695047
v 0.518773 0.000000 0.854912
v 0.432343 0.043634 0.712480
v 0.345914 0.000000 0.570048
v 0.432343 -0.043634 0.712480
v 0.471397 0.000000 0.881921
v 0.389087 0.045731 0.727930
v 0.306777 0.000000 0.573939
v 0.389087 -0.045731 0.727930
v 0.422618 0.000000 0.906308
v 0.345759 0.047631 0.741482
v 0.268899 0.000000 0.576656
v 0.345759 -0.047631 0.741482
v 0.372583 0.000000 0.927999
v 0.302409 0.049328 0.753217
v 0.232236 0.000000 0.578434
v 0.302409 -0.049328 0.753217
v 0.321439 0.000000 0.946930
v 0.259075 0.050813 0.763212
v 0.196712 0.000000 0.579493
v 0.259075 -0.050813 0.763212
v 0.269340 0.000000 0.963045
v 0.215780 0.052081 0.771538
v 0.162221 0.000000 0.580032
v 0.215780 -0.052081 0.771538
v 0.216440 0.000000 0.976296
v 0.172536 0.053126 0.778260
v 0.128632 0.000000 0.580224
v 0.172536 -0.053126 0.778260
v 0.162895 0.000000 0.986643
v 0.129345 0.053943 0.783429
v 0.095794 0.000000 0.580216
v 0.129345 -0.053943 0.783429
v 0.108867 0.000000 0.994056
v 0.086200 0.054529 0.787090
v 0.063534 0.000000 0.580124
v 0.086200 -0.054529 0.787090
v 0.054515 0.000000 0.998513
v 0.043091 0.054882 0.789274
v 0.031667 0.000000 0.580035
v 0.043091 -0.054882 0.789274
v 0.000000 0.000000 1.000000
v 0.000000 0.055000 0.790000
v 0.000000 0.000000 0.580000
v 0.000000 -0.055000 0.790000
v -0.054515 0.000000 0.998513
v -0.043091 0.054882 0.789274
v -0.031667 0.000000 0.580035
v -0.043091 -0.054882 0.789274
v -0.108867 0.000000 0.994056
v -0.086200 0.054529 0.787090
v -0.063534 0.000000 0.580124
v -0.086200 -0.054529 0.787090
v -0.162895 0.000000 0.986643
v -0.129345 0.053943 0.783429
v -0.095794 0.000000 0.580216
v -0.129345 -0.053943 0.783429
v -0.216440 0.000000 0.976296
v -0.172536 0.053126 0.778260
v -0.128632 0.000000 0.580224
v -0.172536 -0.053126 0.778260
v -0.269340 0.000000 0.963045
v -0.215780 0.052081 0.771538
v -0.162221 0.000000 0.580032
v -0.215780 -0.052081 0.771538
v -0.321439 0.000000 0.946930
v -0.259075 0.050813 0.763212
v -0.196712 0.000000 0.579493
v -0.259075 -0.050813 0.763212
v -0.372583 0.000000 0.927999
v -0.302409 0.049328 0.753217
v -0.232236 0.000000 0.578434
v -0.302409 -0.049328 0.753217
v -0.422618 0.000000 0.906308
v -0.345759 0.047631 0.741482
v -0.268899 0.000000 0.576656
v -0.345759 -0.047631 0.741482
v -0.471397 0.000000 0.881921
v -0.389087 0.045731 0.727930
v -0.306777 0.000000 0.573939
v -0.389087 -0.045731 0.727930
v -0.518773 0.000000 0.854912
v -0.432343 0.043634 0.712480
v -0.345914 0.000000 0.570048
v -0.432343 -0.043634 0.712480
v -0.564607 0.000000 0.825360
v -0.475463 0.041351 0.695047
v -0.386319 0.000000 0.564734
v -0.475463 -0.041351 0.695047
v -0.608761 0.000000 0.793353
v -0.518365 0.038891 0.675546
v -0.427969 0.000000 0.557739
v -0.518365 -0.038891 0.675546
v -0.651105 0.000000 0.758987
v -0.560952 0.036264 0.653896
v -0.470798 0.000000 0.548805
v -0.560952 -0.036264 0.653896
v -0.691513 0.000000 0.722364
v -0.603110 0.033482 0.630017
v -0.514707 0.000000 0.537670
v -0.603110 -0.033482 0.630017
v -0.729864 0.000000 0.683592
v -0.644711 0.030556 0.603838
v -0.559558 0.000000 0.524083
v -0.644711 -0.030556 0.603838
v -0.766044 0.000000 0.642788
v -0.685610 0.027500 0.575295
v -0.605175 0.000000 0.507802
v -0.685610 -0.027500 0.575295
v -0.799947 0.000000 0.600071
v -0.725647 0.024326 0.544336
v -0.651347 0.000000 0.488601
v -0.725647 -0.024326 0.544336
v -0.831470 0.000000 0.555570
v -0.764650 0.021048 0.510923
v -0.697830 0.000000 0.466275
v -0.764650 -0.021048 0.510923
v -0.860520 0.000000 0.509417
v -0.802433 0.017679 0.475030
v -0.744346 0.000000 0.440643
v -0.802433 -0.017679 0.475030
v -0.887011 0.000000 0.461749
v -0.838800 0.014235 0.436652
v -0.790589 0.000000 0.411555
v -0.838800 -0.014235 0.436652
v -0.910864 0.000000 0.412707
v -0.873547 0.010730 0.395799
v -0.836230 0.000000 0.378891
v -0.873547 -0.010730 0.395799
v -0.932008 0.000000 0.362438
v -0.906461 0.007179 0.352503
v -0.880914 0.000000 0.342569
v -0.906461 -0.007179 0.352503
v -0.950380 0.000000 0.311091
v -0.937327 0.003597 0.306818
v -0.924274 0.000000 0.302546
v -0.937327 -0.003597 0.306818
v -0.965926 0.000000 0.258819
vn -0.5048 -0.0000 0.8632
vn -0.9504 -0.0000 -0.3111
vn -0.0262 -0.9979 0.0588
vn 0.6966 -0.0000 0.7175
vn -0.0262 0.9979 0.0588
vn -0.9320 -0.0000 -0.3624
vn -0.0291 -0.9979 0.0587
vn 0.6524 -0.0000 0.7579
vn -0.0291 0.9979 0.0587
vn -0.9109 -0.0000 -0.4127
vn -0.0323 -0.9978 0.0578
vn 0.6069 -0.0000 0.7948
vn -0.0323 0.9978 0.0578
vn -0.8870 -0.0000 -0.4617
vn -0.0355 -0.9978 0.0565
vn 0.5607 -0.0000 0.8280
vn -0.0355 0.9978 0.0565
vn -0.8605 -0.0000 -0.5094
vn -0.0385 -0.9978 0.0547
vn 0.5143 -0.0000 0.8576
vn -0.0385 0.9978 0.0547
vn -0.8315 -0.0000 -0.5556
vn -0.0413 -0.9978 0.0525
vn 0.4681 -0.0000 0.8837
vn -0.0413 0.9978 0.0525
vn -0.7999 -0.0000 -0.6001
vn -0.0437 -0.9978 0.0499
vn 0.4226 -0.0000 0.9063
vn -0.0437 0.9978 0.0499
vn -0.7660 -0.0000 -0.6428
vn -0.0457 -0.9979 0.0469
vn 0.3782 -0.0000 0.9257
vn -0.0457 0.9979 0.0469
vn -0.7299 -0.0000 -0.6836
vn -0.0473 -0.9979 0.0436
vn 0.3352 -0.0000 0.9422
vn -0.0473 0.9979 0.0436
vn -0.6915 -0.0000 -0.7224
vn -0.0483 -0.9980 0.0399
vn 0.2940 -0.0000 0.9558
vn -0.0483 0.9980 0.0399
vn -0.6511 -0.0000 -0.7590
vn -0.0488 -0.9982 0.0361
vn 0.2549 -0.0000 0.9670
vn -0.0488 0.9982 0.0361
vn -0.6088 -0.0000 -0.7934
vn -0.0487 -0.9983 0.0320
vn 0.2182 -0.0000 0.9759
vn -0.0487 0.9983 0.0320
vn -0.5646 -0.0000 -0.8254
vn -0.0479 -0.9985 0.0279
vn 0.1842 -0.0000 0.9829
vn -0.0479 0.9985 0.0279
vn -0.5188 -0.0000 -0.8549
vn -0.0464 -0.9986 0.0237
vn 0.1532 -0.0000 0.9882
vn -0.0464 0.9986 0.0237
vn -0.4714 -0.0000 -0.8819
vn -0.0443 -0.9988 0.0195
vn 0.1252 -0.0000 0.9921
vn -0.0443 0.9988 0.0195
vn -0.4226 -0.0000 -0.9063
vn -0.0415 -0.9990 0.0155
vn 0.1005 -0.0000 0.9949
vn -0.0415 0.9990 0.0155
vn -0.3726 -0.0000 -0.9280
vn -0.0380 -0.9992 0.0117
vn 0.0789 -0.0000 0.9969
vn -0.0380 0.9992 0.0117
vn -0.3214 -0.0000 -0.9469
vn -0.0339 -0.9994 0.0082
vn 0.0606 -0.0000 0.9982
vn -0.0339 0.9994 0.0082
vn -0.2693 -0.0000 -0.9630
vn -0.0292 -0.9996 0.0051
vn 0.0452 -0.0000 0.9990
vn -0.0292 0.9996 0.0051
vn -0.2164 -0.0000 -0.9763
vn -0.0241 -0.9997 0.0024
vn 0.0325 -0.0000 0.9995
vn -0.0241 0.9997 0.0024
vn -0.1629 -0.0000 -0.9866
vn -0.0184 -0.9998 0.0002
vn 0.0222 -0.0000 0.9998
vn -0.0184 0.9998 0.0002
vn -0.1089 -0.0000 -0.9941
vn -0.0125 -0.9999 -0.0013
vn 0.0137 -0.0000 0.9999
vn -0.0125 0.9999 -0.0013
vn -0.0545 -0.0000 -0.9985
vn -0.0063 -1.0000 -0.0023
vn 0.0065 -0.0000 1.0000
vn -0.0063 1.0000 -0.0023
vn -0.0000 -0.0000 -1.0000
vn -0.0000 -1.0000 -0.0026
vn -0.0000 -0.0000 1.0000
vn -0.0000 1.0000 -0.0026
vn 0.0545 -0.0000 -0.9985
vn 0.0063 -1.0000 -0.0023
vn -0.0065 -0.0000 1.0000
vn 0.0063 1.0000 -0.0023
vn 0.1089 -0.0000 -0.9941
vn 0.0125 -0.9999 -0.0013
vn -0.0137 -0.0000 0.9999
vn 0.0125 0.9999 -0.0013
vn 0.1629 -0.0000 -0.9866
vn 0.0184 -0.9998 0.0002
vn -0.0222 -0.0000 0.9998
vn 0.0184 0.9998 0.0002
vn 0.2164 -0.0000 -0.9763
vn 0.0241 -0.9997 0.0024
vn -0.0325 -0.0000 0.9995
vn 0.0241 0.9997 0.0024
vn 0.2693 -0.0000 -0.9630
vn 0.0292 -0.9996 0.0051
vn -0.0452 -0.0000 0.9990
vn 0.0292 0.9996 0.0051
vn 0.3214 -0.0000 -0.9469
vn 0.0339 -0.9994 0.0082
vn -0.0606 -0.0000 0.9982
vn 0.0339 0.9994 0.0082
vn 0.3726 -0.0000 -0.9280
vn 0.0380 -0.9992 0.0117
vn -0.0789 -0.0000 0.9969
vn 0.0380 0.9992 0.0117
vn 0.4226 -0.0000 -0.9063
vn 0.0415 -0.9990 0.0155
vn -0.1005 -0.0000 0.9949
vn 0.0415 0.9990 0.0155
vn 0.4714 -0.0000 -0.8819
vn 0.0443 -0.9988 0.0195
vn -0.1252 -0.0000 0.9921
vn 0.0443 0.9988 0.0195
vn 0.5188 -0.0000 -0.8549
vn 0.0464 -0.9986 0.0237
vn -0.1532 -0.0000 0.9882
vn 0.0464 0.9986 0.0237
vn 0.5646 -0.0000 -0.8254
vn 0.0479 -0.9985 0.0279
vn -0.1842 -0.0000 0.9829
vn 0.0479 0.9985 0.0279
vn 0.6088 -0.0000 -0.7934
vn 0.0487 -0.9983 0.0320
vn -0.2182 -0.0000 0.9759
vn 0.0487 0.9983 0.0320
vn 0.6511 -0.0000 -0.7590
vn 0.0488 -0.9982 0.0361
vn -0.2549 -0.0000 0.9670
vn 0.0488 0.9982 0.0361
vn 0.6915 -0.0000 -0.7224
vn 0.0483 -0.9980 0.0399
vn -0.2940 -0.0000 0.9558
vn 0.0483 0.9980 0.0399
vn 0.7299 -0.0000 -0.6836
vn 0.0473 -0.9979 0.0436
vn -0.3352 -0.0000 0.9422
vn 0.0473 0.9979 0.0436
vn 0.7660 -0.0000 -0.6428
vn 0.0457 -0.9979 0.0469
vn -0.3782 -0.0000 0.9257
vn 0.0457 0.9979 0.0469
vn 0.7999 -0.0000 -0.6001
vn 0.0437 -0.9978 0.0499
vn -0.4226 -0.0000 0.9063
vn 0.0437 0.9978 0.0499
vn 0.8315 -0.0000 -0.5556
vn 0.0413 -0.9978 0.0525
vn -0.4681 -0.0000 0.8837
vn 0.0413 0.9978 0.0525
vn 0.8605 -0.0000 -0.5094
vn 0.0385 -0.9978 0.0547
vn -0.5143 -0.0000 0.8576
vn 0.0385 0.9978 0.0547
vn 0.8870 -0.0000 -0.4617
vn 0.0355 -0.9978 0.0565
vn -0.5607 -0.0000 0.8280
vn 0.0355 0.9978 0.0565
vn 0.9109 -0.0000 -0.4127
vn 0.0323 -0.9978 0.0578
vn -0.6069 -0.0000 0.7948
vn 0.0323 0.9978 0.0578
vn 0.9320 -0.0000 -0.3624
vn 0.0291 -0.9979 0.0587
vn -0.6524 -0.0000 0.7579
vn 0.0291 0.9979 0.0587
vn 0.9504 -0.0000 -0.3111
vn 0.0262 -0.9979 0.0588
vn -0.6966 -0.0000 0.7175
vn 0.0262 0.9979 0.0588
vn 0.5048 -0.0000 0.8632
vt 0.000000 0.000000
vt 0.020833 0.000000
vt 0.020833 0.500000
vt 0.000000 0.500000
vt 0.020833 1.000000
vt 0.000000 1.000000
vt 0.041667 0.000000
vt 0.041667 0.500000
vt 0.041667 1.000000
vt 0.062500 0.000000
vt 0.062500 0.500000
vt 0.062500 1.000000
vt 0.083333 0.000000
vt 0.083333 0.500000
vt 0.083333 1.000000
vt 0.104167 0.000000
vt 0.104167 0.500000
vt 0.104167 1.000000
vt 0.125000 0.000000
vt 0.125000 0.500000
vt 0.125000 1.000000
vt 0.145833 0.000000
vt 0.145833 0.500000
vt 0.145833 1.000000
vt 0.166667 0.000000
vt 0.166667 0.500000
vt 0.166667 1.000000
vt 0.187500 0.000000
vt 0.187500 0.500000
vt 0.187500 1.000000
vt 0.208333 0.000000
vt 0.208333 0.500000
vt 0.208333 1.000000
vt 0.229167 0.000000
vt 0.229167 0.500000
vt 0.229167 1.000000
vt 0.250000 0.000000
vt 0.250000 0.500000
vt 0.250000 1.000000
vt 0.270833 0.000000
vt 0.270833 0.500000
vt 0.270833 1.000000
vt 0.291667 0.000000
vt 0.291667 0.500000
vt 0.291667 1.000000
vt 0.312500 0.000000
vt 0.312500 0.500000
vt 0.312500 1.000000
vt 0.333333 0.000000
vt 0.333333 0.500000
vt 0.333333 1.000000
vt 0.354167 0.000000
vt 0.354167 0.500000
vt 0.354167 1.000000
vt 0.375000 0.000000
vt 0.375000 0.500000
vt 0.375000 1.000000
vt 0.395833 0.000000
vt 0.395833 0.500000
vt 0.395833 1.000000
vt 0.416667 0.000000
vt 0.416667 0.500000
vt 0.416667 1.000000
vt 0.437500 0.000000
vt 0.437500 0.500000
vt 0.437500 1.000000
vt 0.458333 0.000000
vt 0.458333 0.500000
vt 0.458333 1.000000
vt 0.479167 0.000000
vt 0.479167 0.500000
vt 0.479167 1.000000
vt 0.500000 0.000000
vt 0.500000 0.500000
vt 0.500000 1.000000
vt 0.520833 0.000000
vt 0.520833 0.500000
vt 0.520833 1.000000
vt 0.541667 0.000000
vt 0.541667 0.500000
vt 0.541667 1.000000
vt 0.562500 0.000000
vt 0.562500 0.500000
vt 0.562500 1.000000
vt 0.583333 0.000000
vt 0.583333 0.500000
vt 0.583333 1.000000
vt 0.604167 0.000000
vt 0.604167 0.500000
vt 0.604167 1.000000
vt 0.625000 0.000000
vt 0.625000 0.500000
vt 0.625000 1.000000
vt 0.645833 0.000000
vt 0.645833 0.500000
vt 0.645833 1.000000
vt 0.666667 0.000000
vt 0.666667 0.500000
vt 0.666667 1.000000
vt 0.687500 0.000000
vt 0.687500 0.500000
vt 0.687500 1.000000
vt 0.708333 0.000000
vt 0.708333 0.500000
vt 0.708333 1.000000
vt 0.729167 0.000000
vt 0.729167 0.500000
vt 0.729167 1.000000
vt 0.750000 0.000000
vt 0.750000 0.500000
vt 0.750000 1.000000
vt 0.770833 0.000000
vt 0.770833 0.500000
vt 0.770833 1.000000
vt 0.791667 0.000000
vt 0.791667 0.500000
vt 0.791667 1.000000
vt 0.812500 0.000000
vt 0.812500 0.500000
vt 0.812500 1.000000
vt 0.833333 0.000000
vt 0.833333 0.500000
vt 0.833333 1.000000
vt 0.854167 0.000000
vt 0.854167 0.500000
vt 0.854167 1.000000
vt 0.875000 0.000000
vt 0.875000 0.500000
vt 0.875000 1.000000
vt 0.895833 0.000000
vt 0.895833 0.500000
vt 0.895833 1.000000
vt 0.916667 0.000000
vt 0.916667 0.500000
vt 0.916667 1.000000
vt 0.937500 0.000000
vt 0.937500 0.500000
vt 0.937500 1.000000
vt 0.958333 0.000000
vt 0.958333 0.500000
vt 0.958333 1.000000
vt 0.979167 0.000000
vt 0.979167 0.500000
vt 0.979167 1.000000
vt 1.000000 0.500000
vt 1.000000 1.000000
vt 1.000000 0.000000
s 1
f 1/1/1 2/2/2 3/3/3
f 1/4/1 3/3/3 4/5/4
f 1/6/1 4/5/4 5/3/5
f 1/4/1 5/3/5 2/2/2
f 2/2/2 6/7/6 7/8/7 3/3/3
f 3/3/3 7/8/7 8/9/8 4/5/4
f 4/5/4 8/9/8 9/8/9 5/3/5
f 5/3/5 9/8/9 6/7/6 2/2/2
f 6/7/6 10/10/10 11/11/11 7/8/7
f 7/8/7 11/11/11 12/12/12 8/9/8
f 8/9/8 12/12/12 13/11/13 9/8/9
f 9/8/9 13/11/13 10/10/10 6/7/6
f 10/10/10 14/13/14 15/14/15 11/11/11
f 11/11/11 15/14/15 16/15/16 12/12/12
f 12/12/12 16/15/16 17/14/17 13/11/13
f 13/11/13 17/14/17 14/13/14 10/10/10
f 14/13/14 18/16/18 19/17/19 15/14/15
f 15/14/15 19/17/19 20/18/20 16/15/16
f 16/15/16 20/18/20 21/17/21 17/14/17
f 17/14/17 21/17/21 18/16/18 14/13/14
f 18/16/18 22/19/22 23/20/23 19/17/19
f 19/17/19 23/20/23 24/21/24 20/18/20
f 20/18/20 24/21/24 25/20/25 21/17/21
f 21/17/21 25/20/25 22/19/22 18/16/18
f 22/19/22 26/22/26 27/23/27 23/20/23
f 23/20/23 27/23/27 28/24/28 24/21/24
f 24/21/24 28/24/28 29/23/29 25/20/25
f 25/20/25 29/23/29 26/22/26 22/19/22
f 26/22/26 30/25/30 31/26/31 27/23/27
f 27/23/27 31/26/31 32/27/32 28/24/28
f 28/24/28 32/27/32 33/26/33 29/23/29
f 29/23/29 33/26/33 30/25/30 26/22/26
f 30/25/30 34/28/34 35/29/35 31/26/31
f 31/26/31 35/29/35 36/30/36 32/27/32
f 32/27/32 36/30/36 37/29/37 33/26/33
f 33/26/33 37/29/37 34/28/34 30/25/30
f 34/28/34 38/31/38 39/32/39 35/29/35
f 35/29/35 39/32/39 40/33/40 36/30/36
f 36/30/36 40/33/40 41/32/41 37/29/37
f 37/29/37 41/32/41 38/31/38 34/28/34
f 38/31/38 42/34/42 43/35/43 39/32/39
f 39/32/39 43/35/43 44/36/44 40/33/40
f 40/33/40 44/36/44 45/35/45 41/32/41
f 41/32/41 45/35/45 42/34/42 38/31/38
f 42/34/42 46/37/46 47/38/47 43/35/43
f 43/35/43 47/38/47 48/39/48 44/36/44
f 44/36/44 48/39/48 49/38/49 45/35/45
f 45/35/45 49/38/49 46/37/46 42/34/42
f 46/37/46 50/40/50 51/41/51 47/38/47
f 47/38/47 51/41/51 52/42/52 48/39/48
f 48/39/48 52/42/52 53/41/53 49/38/49
f 49/38/49 53/41/53 50/40/50 46/37/46
f 50/40/50 54/43/54 55/44/55 51/41/51
f 51/41/51 55/44/55 56/45/56 52/42/52
f 52/42/52 56/45/56 57/44/57 53/41/53
f 53/41/53 57/44/57 54/43/54 50/40/50
f 54/43/54 58/46/58 59/47/59 55/44/55
f 55/44/55 59/47/59 60/48/60 56/45/56
f 56/45/56 60/48/60 61/47/61 57/44/57
f 57/44/57 61/47/61 58/46/58 54/43/54
f 58/46/58 62/49/62 63/50/63 59/47/59
f 59/47/59 63/50/63 64/51/64 60/48/60
f 60/48/60 64/51/64 65/50/65 61/47/61
f 61/47/61 65/50/65 62/49/62 58/46/58
f 62/49/62 66/52/66 67/53/67 63/50/63
f 63/50/63 67/53/67 68/54/68 64/51/64
f 64/51/64 68/54/68 69/53/69 65/50/65
f 65/50/65 69/53/69 66/52/66 62/49/62
f 66/52/66 70/55/70 71/56/71 67/53/67
f 67/53/67 71/56/71 72/57/72 68/54/68
f 68/54/68 72/57/72 73/56/73 69/53/69
f 69/53/69 73/56/73 70/55/70 66/52/66
f 70/55/70 74/58/74 75/59/75 71/56/71
f 71/56/71 75/59/75 76/60/76 72/57/72
f 72/57/72 76/60/76 77/59/77 73/56/73
f 73/56/73 77/59/77 74/58/74 70/55/70
f 74/58/74 78/61/78 79/62/79 75/59/75
f 75/59/75 79/62/79 80/63/80 76/60/76
f 76/60/76 80/63/80 81/62/81 77/59/77
f 77/59/77 81/62/81 78/61/78 74/58/74
f 78/61/78 82/64/82 83/65/83 79/62/79
f 79/62/79 83/65/83 84/66/84 80/63/80
f 80/63/80 84/66/84 85/65/85 81/62/81
f 81/62/81 85/65/85 82/64/82 78/61/78
f 82/64/82 86/67/86 87/68/87 83/65/83
f 83/65/83 87/68/87 88/69/88 84/66/84
f 84/66/84 88/69/88 89/68/89 85/65/85
f 85/65/85 89/68/89 86/67/86 82/64/82
f 86/67/86 90/70/90 91/71/91 87/68/87
f 87/68/87 91/71/91 92/72/92 88/69/88
f 88/69/88 92/72/92 93/71/93 89/68/89
f 89/68/89 93/71/93 90/70/90 86/67/86
f 90/70/90 94/73/94 95/74/95 91/71/91
f 91/71/91 95/74/95 96/75/96 92/72/92
f 92/72/92 96/75/96 97/74/97 93/71/93
f 93/71/93 97/74/97 94/73/94 90/70/90
f 94/73/94 98/76/98 99/77/99 95/74/95
f 95/74/95 99/77/99 100/78/100 96/75/96
f 96/75/96 100/78/100 101/77/101 97/74/97
f 97/74/97 101/77/101 98/76/98 94/73/94
f 98/76/98 102/79/102 103/80/103 99/77/99
f 99/77/99 103/80/103 104/81/104 100/78/100
f 100/78/100 104/81/104 105/80/105 101/77/101
f 101/77/101 105/80/105 102/79/102 98/76/98
f 102/79/102 106/82/106 107/83/107 103/80/103
f 103/80/103 107/83/107 108/84/108 104/81/104
f 104/81/104 108/84/108 109/83/109 105/80/105
f 105/80/105 109/83/109 106/82/106 102/79/102
f 106/82/106 110/85/110 111/86/111 107/83/107
f 107/83/107 111/86/111 112/87/112 108/84/108
f 108/84/108 112/87/112 113/86/113 109/83/109
f 109/83/109 113/86/113 110/85/110 106/82/106
f 110/85/110 114/88/114 115/89/115 111/86/111
f 111/86/111 115/89/115 116/90/116 112/87/112
f 112/87/112 116/90/116 117/89/117 113/86/113
f 113/86/113 117/89/117 114/88/114 110/85/110
f 114/88/114 118/91/118 119/92/119 115/89/115
f 115/89/115 119/92/119 120/93/120 116/90/116
f 116/90/116 120/93/120 121/92/121 117/89/117
f 117/89/117 121/92/121 118/91/118 114/88/114
f 118/91/118 122/94/122 123/95/123 119/92/119
f 119/92/119 123/95/123 124/96/124 120/93/120
f 120/93/120 124/96/124 125/95/125 121/92/121
f 121/92/121 125/95/125 122/94/122 118/91/118
f 122/94/122 126/97/126 127/98/127 123/95/123
f 123/95/123 127/98/127 128/99/128 124/96/124
f 124/96/124 128/99/128 129/98/129 125/95/125
f 125/95/125 129/98/129 126/97/126 122/94/122
f 126/97/126 130/100/130 131/101/131 127/98/127
f 127/98/127 131/101/131 132/102/132 128/99/128
f 128/99/128 132/102/132 133/101/133 129/98/129
f 129/98/129 133/101/133 130/100/130 126/97/126
f 130/100/130 134/103/134 135/104/135 131/101/131
f 131/101/131 135/104/135 136/105/136 132/102/132
f 132/102/132 136/105/136 137/104/137 133/101/133
f 133/101/133 137/104/137 134/103/134 130/100/130
f 134/103/134 138/106/138 139/107/139 135/104/135
f 135/104/135 139/107/139 140/108/140 136/105/136
f 136/105/136 140/108/140 141/107/141 137/104/137
f 137/104/137 141/107/141 138/106/138 134/103/134
f 138/106/138 142/109/142 143/110/143 139/107/139
f 139/107/139 143/110/143 144/111/144 140/108/140
f 140/108/140 144/111/144 145/110/145 141/107/141
f 141/107/141 145/110/145 142/109/142 138/106/138
f 142/109/142 146/112/146 147/113/147 143/110/143
f 143/110/143 147/113/147 148/114/148 144/111/144
f 144/111/144 148/114/148 149/113/149 145/110/145
f 145/110/145 149/113/149 146/112/146 142/109/142
f 146/112/146 150/115/150 151/116/151 147/113/147
f 147/113/147 151/116/151 152/117/152 148/114/148
f 148/114/148 152/117/152 153/116/153 149/113/149
f 149/113/149 153/116/153 150/115/150 146/112/146
f 150/115/150 154/118/154 155/119/155 151/116/151
f 151/116/151 155/119/155 156/120/156 152/117/152
f 152/117/152 156/120/156 157/119/157 153/116/153
f 153/116/153 157/119/157 154/118/154 150/115/150
f 154/118/154 158/121/158 159/122/159 155/119/155
f 155/119/155 159/122/159 160/123/160 156/120/156
f 156/120/156 160/123/160 161/122/161 157/119/157
f 157/119/157 161/122/161 158/121/158 154/118/154
f 158/121/158 162/124/162 163/125/163 159/122/159
f 159/122/159 163/125/163 164/126/164 160/123/160
f 160/123/160 164/126/164 165/125/165 161/122/161
f 161/122/161 165/125/165 162/124/162 158/121/158
f 162/124/162 166/127/166 167/128/167 163/125/163
f 163/125/163 167/128/167 168/129/168 164/126/164
f 164/126/164 168/129/168 169/128/169 165/125/165
f 165/125/165 169/128/169 166/127/166 162/124/162
f 166/127/166 170/130/170 171/131/171 167/128/167
f 167/128/167 171/131/171 172/132/172 168/129/168
f 168/129/168 172/132/172 173/131/173 169/128/169
f 169/128/169 173/131/173 170/130/170 166/127/166
f 170/130/170 174/133/174 175/134/175 171/131/171
f 171/131/171 175/134/175 176/135/176 172/132/172
f 172/132/172 176/135/176 177/134/177 173/131/173
f 173/131/173 177/134/177 174/133/174 170/130/170
f 174/133/174 178/136/178 179/137/179 175/134/175
f 175/134/175 179/137/179 180/138/180 176/135/176
f 176/135/176 180/138/180 181/137/181 177/134/177
f 177/134/177 181/137/181 178/136/178 174/133/174
f 178/136/178 182/139/182 183/140/183 179/137/179
f 179/137/179 183/140/183 184/141/184 180/138/180
f 180/138/180 184/141/184 185/140/185 181/137/181
f 181/137/181 185/140/185 182/139/182 178/136/178
f 182/139/182 186/142/186 187/143/187 183/140/183
f 183/140/183 187/143/187 188/144/188 184/141/184
f 184/141/184 188/144/188 189/143/189 185/140/185
f 185/140/185 189/143/189 186/142/186 182/139/182
f 186/142/186 190/145/190 187/143/187
f 187/143/187 190/146/190 188/144/188
f 188/144/188 190/145/190 189/143/189
f 189/143/189 190/147/190 186/142/186
